<?xml version="1.0" encoding="UTF-8" standalone="no"?>
<!-- Created with Inkscape (http://www.inkscape.org/) -->

<svg
   xmlns:dc="http://purl.org/dc/elements/1.1/"
   xmlns:cc="http://creativecommons.org/ns#"
   xmlns:rdf="http://www.w3.org/1999/02/22-rdf-syntax-ns#"
   xmlns:svg="http://www.w3.org/2000/svg"
   xmlns="http://www.w3.org/2000/svg"
   xmlns:sodipodi="http://sodipodi.sourceforge.net/DTD/sodipodi-0.dtd"
   xmlns:inkscape="http://www.inkscape.org/namespaces/inkscape"
   width="48"
   height="48"
   id="svg2"
   version="1.1"
   inkscape:version="0.48.0 r9654"
   sodipodi:docname="新建文档 1">
  <defs
     id="defs4" />
  <sodipodi:namedview
     id="base"
     pagecolor="#ffffff"
     bordercolor="#666666"
     borderopacity="1.0"
     inkscape:pageopacity="0.0"
     inkscape:pageshadow="2"
     inkscape:zoom="5.6"
     inkscape:cx="41.559343"
     inkscape:cy="19.757447"
     inkscape:document-units="px"
     inkscape:current-layer="layer1"
     showgrid="false"
     inkscape:window-width="1280"
     inkscape:window-height="671"
     inkscape:window-x="0"
     inkscape:window-y="28"
     inkscape:window-maximized="1" />
  <metadata
     id="metadata7">
    <rdf:RDF>
      <cc:Work
         rdf:about="">
        <dc:format>image/svg+xml</dc:format>
        <dc:type
           rdf:resource="http://purl.org/dc/dcmitype/StillImage" />
        <dc:title></dc:title>
      </cc:Work>
    </rdf:RDF>
  </metadata>
  <g
     inkscape:label="Layer 1"
     inkscape:groupmode="layer"
     id="layer1"
     transform="translate(0,-1004.3622)">
    <path
       sodipodi:type="spiral"
       style="fill:#d40000;stroke:#ffff00;stroke-width:1px;stroke-linecap:butt;stroke-linejoin:miter;stroke-opacity:1"
       id="path2985"
       sodipodi:cx="4.8214288"
       sodipodi:cy="7.2857141"
       sodipodi:expansion="1"
       sodipodi:revolution="13.01"
       sodipodi:radius="14.081124"
       sodipodi:argument="-17.061466"
       sodipodi:t0="0"
       d="M 4.8214288,7.2857141 C 4.7863313,7.4446849 4.5898236,7.3168341 4.5572089,7.2273799 4.4688254,6.9849647 4.7189996,6.7772401 4.9380972,6.7572745 5.3300116,6.7215606 5.6170815,7.0951898 5.6140883,7.4607168 5.6096955,7.9971425 5.0985077,8.3729797 4.5880918,8.3425935 3.9077878,8.3020934 3.4408021,7.648912 3.5003296,6.994043 3.575239,6.1699572 4.3722926,5.6108505 5.1714342,5.7003952 6.1393018,5.8088457 6.7910311,6.7507357 6.6709676,7.6940538 6.5294769,8.8057215 5.4421903,9.5503694 4.3547549,9.3994728 3.0992677,9.2252567 2.2615109,7.9922193 2.4434503,6.760706 2.6501814,5.3613825 4.029208,4.4303868 5.4047711,4.6435159 6.947945,4.8826144 7.9722724,6.4077984 7.7278469,7.9273907 7.4564883,9.6144262 5.7850238,10.732154 4.121418,10.456352 2.2905117,10.152814 1.0793307,8.3349762 1.386571,6.5273691 1.7222266,4.5525845 3.6865094,3.2479096 5.638108,3.5866365 7.7567772,3.9543609 9.1549785,6.0651453 8.7847262,8.1607276 8.3849721,10.423286 6.1276406,11.915041 3.888081,11.513231 1.4816282,11.081479 -0.1037002,8.6775636 0.32969167,6.2940322 0.79341588,3.7436816 3.3439463,2.064761 5.871445,2.5297572 8.5656965,3.0254317 10.338224,5.7226024 9.8416055,8.3940646 9.3139991,11.23222 6.4701665,13.098367 3.6547441,12.570111 0.67268314,12.010588 -1.2870953,9.020075 -0.72718765,6.0606952 -0.1357617,2.9347264 3.0014473,0.88130767 6.1047819,1.4728779 9.3746605,2.0961954 11.521728,5.3801142 10.898485,8.6274015 10.243286,12.041191 6.8126454,14.281914 3.4214072,13.62699 -0.13629538,12.939918 -2.4706797,9.3625457 -1.784067,5.8273583 -1.06513,2.1257419 2.6589838,-0.30230971 6.3381188,0.41599858 10.18365,1.1667938 12.705374,5.037657 11.955364,8.8607385 11.172717,12.850186 7.1550968,15.465586 3.1880702,14.683869 -0.94529403,13.869375 -3.6543749,9.704992 -2.8409463,5.5940214 -1.9946101,1.3167394 2.316542,-1.4860254 6.5714558,-0.64088074 10.992656,0.23729308 13.889108,4.6952194 13.012243,9.0940754 12.102236,13.659195 7.4975308,16.649337 2.9547333,15.740749 -1.7543057,14.798911 -4.8381405,10.047423 -3.8978256,5.3606844 -2.9241612,0.50772525 1.9741145,-2.6698047 6.8047927,-1.6977601 11.801673,-0.6922718 15.0729,4.3527946 14.069123,9.3274123 13.031813,14.468213 7.839953,17.83314 2.7213964,16.797628 -2.5633262,15.7285 -6.0219538,10.389842 -4.9547049,5.1273475 -3.8537604,-0.30129707 1.6316968,-3.8536274 7.0381296,-2.7546394 12.610697,-1.6218806 16.256731,4.0103789 15.126002,9.5607493 13.961431,15.277239 8.1823668,19.016979 2.4880594,17.854507 -3.3723531,16.658126 -7.2058008,10.732255 -6.0115842,4.8940106 -4.7833936,-1.1103252 1.2892862,-5.0374812 7.2714666,-3.8115187 13.419726,-2.5515206 17.440591,3.6679698 16.182881,9.7940862 14.891077,16.086269 8.5247746,20.200845 2.2547225,18.911387 -4.1813846,17.587778 -8.3896723,11.074661 -7.0684636,4.6606736 -5.7130516,-1.9193577 0.94688091,-6.221358 7.5048035,-4.868398 14.228759,-3.4811839 18.624473,3.3255656 17.239761,10.027423 15.820746,16.895304 8.8671777,21.384731 2.0213856,19.968266 -4.9904197,18.517451 -9.5735626,11.417063 -8.1253429,4.4273367 -6.6427284,-2.7283936 0.60447966,-7.4052521 7.7381404,-5.9252773 15.037796,-4.4108647 19.808371,2.9831652 18.29664,10.26076 16.75043,17.704341 9.2095773,22.568633 1.7880486,21.025145 1.4993951,20.965113 1.2126299,20.896004 0.92831639,20.817962"
       transform="matrix(1.6997483,0,0,1.6997483,15.25707,1016.8533)" />
  </g>
</svg>
